# xmcd
#
# Track frame offsets: 
#        150
#        16247
#        31080
#        49527
#
# Disc length: 884 seconds
#
# Revision: 0
# Processed by: cddbd v1.5.2PL0 Copyright (c) Steve Scherf et al.
# Submitted via: ExactAudioCopyFreeDBPlugin 1.0
#
DISCID=20037204
DTITLE=Wyclef Jean - Gone Till November
DYEAR=1997
DGENRE=Hip-Hop
TTITLE0=Gone Till November (Pop Version)
TTITLE1=Gone Till November (Radio Edit)
TTITLE2=Gone Till November (The Makin' Runs Remix)
TTITLE3=Gone Till November (The Makin' Runs Remix Instrumental)
EXTD=
EXTT0=
EXTT1=
EXTT2=
EXTT3=
PLAYORDER=
